<?xml version="1.0" standalone="no"?>
<!DOCTYPE svg PUBLIC "-//W3C//DTD SVG 20010904//EN"
 "http://www.w3.org/TR/2001/REC-SVG-20010904/DTD/svg10.dtd">
<svg version="1.0" xmlns="http://www.w3.org/2000/svg"
 width="1024.000000pt" height="1024.000000pt" viewBox="0 0 1024.000000 1024.000000"
 preserveAspectRatio="xMidYMid meet">
<metadata>
Created by potrace 1.14, written by Peter Selinger 2001-2017
</metadata>
<g transform="translate(0.000000,1024.000000) scale(0.100000,-0.100000)"
fill="#000000" stroke="none">
<path d="M6198 8123 c7 -3 16 -2 19 1 4 3 -2 6 -13 5 -11 0 -14 -3 -6 -6z"/>
<path d="M6280 8100 c0 -13 11 -13 30 0 12 8 11 10 -7 10 -13 0 -23 -4 -23
-10z"/>
<path d="M6288 8078 c-23 -6 -38 -16 -38 -25 0 -11 5 -13 18 -8 32 14 122 18
122 6 0 -11 -27 -15 -90 -13 -30 2 -32 0 -15 -8 14 -7 0 -9 -50 -5 -189 14
-477 17 -571 5 -110 -13 -138 -29 -121 -67 16 -35 0 -89 -36 -119 -18 -15 -95
-58 -172 -95 -125 -60 -145 -74 -180 -119 -76 -96 -267 -166 -389 -140 -31 6
-58 16 -62 21 -3 5 -10 7 -15 3 -5 -3 -6 -10 -3 -16 4 -7 2 -8 -5 -4 -6 4 -11
13 -10 19 1 7 1 18 0 25 -2 19 -28 -8 -27 -27 1 -9 -14 -19 -35 -25 -20 -6
-44 -19 -53 -28 -10 -10 -26 -18 -36 -18 -10 0 -22 -5 -25 -10 -4 -6 -10 -8
-15 -5 -4 2 -19 -5 -34 -16 -14 -11 -26 -17 -26 -12 0 4 -7 -1 -15 -11 -8 -11
-15 -14 -15 -8 0 7 -4 12 -10 12 -5 0 -10 -5 -10 -11 0 -12 -25 -39 -36 -39
-3 0 -2 6 4 13 6 6 11 17 11 22 2 25 69 109 165 209 59 60 106 116 106 125 0
9 4 21 8 26 8 9 32 84 32 99 0 4 -4 4 -10 1 -5 -3 -10 -1 -10 4 0 6 7 11 15
11 18 0 19 9 4 30 -9 13 -10 12 -5 -2 3 -12 0 -18 -10 -18 -8 0 -12 4 -9 10 4
6 -1 7 -11 3 -10 -4 -13 -8 -7 -10 13 -5 6 -33 -8 -33 -5 0 -9 8 -9 17 0 14
-5 12 -27 -8 -14 -13 -23 -18 -18 -11 4 8 -11 2 -34 -13 -22 -15 -38 -31 -35
-36 3 -5 -1 -6 -8 -4 -32 13 -299 -228 -400 -360 -58 -77 -138 -206 -138 -223
0 -9 5 -10 18 -4 51 27 266 79 447 107 138 22 537 31 701 16 635 -59 1259
-278 1769 -621 122 -83 162 -114 243 -193 73 -70 75 -70 216 -37 247 57 485
189 661 365 91 90 204 247 225 311 11 33 10 36 -38 91 -75 87 -122 193 -122
279 l0 31 -67 -19 c-38 -11 -113 -22 -168 -25 -206 -12 -381 51 -755 272 -292
173 -637 325 -706 312 -13 -2 -24 0 -24 4 0 10 -3 10 -52 -3z m-1965 -763 c-3
-9 -8 -14 -10 -11 -3 3 -2 9 2 15 9 16 15 13 8 -4z"/>
<path d="M4688 7907 c-9 -7 -13 -18 -10 -24 5 -7 12 -2 19 13 6 13 10 24 10
24 -1 0 -10 -6 -19 -13z"/>
<path d="M4486 6264 c-187 -18 -461 -72 -602 -119 -184 -60 -190 -64 -193
-157 -1 -36 2 -48 14 -48 9 0 12 -6 8 -16 -3 -8 -12 -13 -19 -10 -8 3 -14 -1
-14 -9 0 -21 14 -19 73 14 28 17 86 44 127 61 41 17 83 35 92 40 58 32 440
101 512 92 11 -1 16 1 12 5 -4 4 -37 7 -74 6 l-67 -1 70 9 c46 6 80 6 99 -1
40 -14 406 -13 406 1 0 7 20 9 58 5 39 -4 49 -3 32 3 -20 7 -21 9 -5 9 11 0
31 -3 45 -7 23 -7 21 -8 -17 -15 -23 -4 -51 -5 -62 -1 -11 3 -22 2 -25 -3 -3
-5 34 -12 82 -15 94 -7 334 -40 422 -58 129 -27 381 -106 500 -157 67 -28 288
-141 341 -174 30 -18 63 -38 74 -45 11 -7 45 -27 75 -44 30 -18 64 -40 75 -49
11 -10 27 -20 35 -23 10 -4 7 -6 -7 -6 -13 -1 -23 -5 -23 -11 0 -5 -6 -10 -14
-10 -9 0 -13 -9 -11 -25 1 -16 -3 -25 -11 -25 -8 0 -14 -4 -14 -10 0 -5 7 -10
15 -10 11 0 15 -12 15 -50 0 -38 -4 -50 -15 -50 -8 0 -15 -8 -15 -18 0 -20
-39 -62 -58 -62 -7 0 -12 -15 -12 -35 0 -59 -22 -125 -41 -125 -10 0 -21 -10
-25 -22 -3 -13 -16 -36 -26 -51 -23 -33 -21 -39 11 -30 17 4 20 8 9 15 -9 7
-8 8 6 4 25 -9 88 12 80 26 -4 7 -2 8 5 4 15 -9 82 15 74 27 -3 5 3 7 13 3 24
-7 47 7 51 31 10 55 11 388 1 400 -8 10 -7 12 4 8 10 -4 14 4 16 32 1 21 4 72
8 114 l6 77 -47 32 c-25 17 -115 67 -198 109 -368 187 -763 307 -1177 356
-190 23 -511 27 -694 9z m231 0 c-3 -3 -12 -4 -19 -1 -8 3 -5 6 6 6 11 1 17
-2 13 -5z m-164 -11 c-7 -2 -19 -2 -25 0 -7 3 -2 5 12 5 14 0 19 -2 13 -5z
m-105 -10 c-10 -2 -26 -2 -35 0 -10 3 -2 5 17 5 19 0 27 -2 18 -5z m-241 -49
c-3 -3 -12 -4 -19 -1 -8 3 -5 6 6 6 11 1 17 -2 13 -5z m-104 -11 c-7 -2 -19
-2 -25 0 -7 3 -2 5 12 5 14 0 19 -2 13 -5z m84 -9 c-3 -3 -12 -4 -19 -1 -8 3
-5 6 6 6 11 1 17 -2 13 -5z m133 -4 c0 -5 -7 -7 -15 -4 -8 4 -15 8 -15 10 0 2
7 4 15 4 8 0 15 -4 15 -10z m-55 -10 c3 -5 2 -10 -4 -10 -5 0 -13 5 -16 10 -3
6 -2 10 4 10 5 0 13 -4 16 -10z m235 0 c0 -5 -15 -9 -32 -9 l-33 1 30 8 c17 4
31 8 33 9 1 0 2 -3 2 -9z m-82 -17 c-10 -2 -28 -2 -40 0 -13 2 -5 4 17 4 22 1
32 -1 23 -4z m394 -5 c-22 -9 -245 -9 -259 0 -6 4 54 7 133 7 79 0 136 -3 126
-7z m88 2 c-14 -4 -34 -8 -45 -8 -16 0 -15 2 5 8 14 4 34 8 45 8 16 0 15 -2
-5 -8z m213 -27 c-7 -2 -21 -2 -30 0 -10 3 -4 5 12 5 17 0 24 -2 18 -5z
m-1268 -23 c3 -6 -1 -7 -9 -4 -18 7 -21 14 -7 14 6 0 13 -4 16 -10z m122 -56
c-3 -3 -12 -4 -19 -1 -8 3 -5 6 6 6 11 1 17 -2 13 -5z"/>
<path d="M4185 5896 c-41 -18 -82 -67 -95 -114 -6 -20 -13 -84 -16 -142 -5
-95 -3 -108 15 -138 56 -87 188 -105 270 -36 39 33 60 101 68 224 7 110 -4
141 -63 186 -43 33 -130 43 -179 20z"/>
<path d="M5682 5789 c-79 -39 -104 -104 -106 -269 -1 -119 8 -141 75 -179 40
-23 128 -29 172 -12 66 25 101 101 113 245 8 96 -3 140 -44 179 -60 58 -139
71 -210 36z"/>
<path d="M6394 5608 c9 -5 23 -5 32 0 12 6 7 9 -16 9 -23 0 -28 -3 -16 -9z"/>
<path d="M6500 5560 c0 -5 5 -10 10 -10 6 0 10 5 10 10 0 6 -4 10 -10 10 -5 0
-10 -4 -10 -10z"/>
<path d="M6867 5347 c-4 -115 -7 -264 -7 -329 l0 -118 38 23 c65 41 98 95 115
188 8 45 13 90 10 98 -4 14 -3 14 6 1 19 -28 25 1 13 73 -7 39 -12 80 -13 90
0 9 -7 17 -14 17 -8 0 -27 19 -42 43 -58 92 -75 116 -87 120 -10 4 -14 -42
-19 -206z"/>
<path d="M6382 5415 c0 -16 2 -22 5 -12 2 9 2 23 0 30 -3 6 -5 -1 -5 -18z"/>
<path d="M6383 5270 c0 -25 2 -35 4 -22 2 12 2 32 0 45 -2 12 -4 2 -4 -23z"/>
<path d="M7690 4997 c-103 -55 -107 -206 -7 -274 18 -12 70 -32 117 -44 128
-32 187 -67 103 -60 -78 6 -123 -38 -123 -122 0 -72 25 -93 145 -123 103 -25
125 -39 125 -81 0 -27 2 -27 43 -9 46 21 137 46 167 46 15 0 29 2 31 5 9 8
-11 169 -31 250 -51 207 -161 319 -405 410 -81 31 -110 31 -165 2z m97 -13
c-3 -3 -12 -4 -19 -1 -8 3 -5 6 6 6 11 1 17 -2 13 -5z m-87 -14 c-8 -5 -11
-12 -7 -16 4 -4 16 1 26 10 15 14 24 15 38 7 17 -10 17 -10 -2 -11 -11 0 -34
-9 -52 -20 -20 -12 -35 -15 -39 -9 -7 12 23 49 40 49 6 0 4 -4 -4 -10z"/>
<path d="M7670 4939 c0 -5 5 -7 10 -4 6 3 10 8 10 11 0 2 -4 4 -10 4 -5 0 -10
-5 -10 -11z"/>
<path d="M8842 4800 c-40 -11 -92 -28 -117 -39 -63 -28 -140 -104 -182 -179
-36 -65 -93 -213 -93 -243 0 -10 22 -26 58 -42 31 -15 74 -37 96 -49 28 -17
40 -20 43 -10 3 8 36 12 118 12 l113 0 31 35 c65 74 28 176 -69 191 -64 10
-35 23 78 34 107 10 143 22 178 62 33 36 44 63 44 108 0 126 -109 169 -298
120z"/>
<path d="M1699 4757 c-209 -59 -343 -295 -283 -498 18 -60 76 -154 105 -169
12 -7 309 -11 816 -12 l798 -1 44 39 c116 101 135 316 40 466 -123 193 -364
245 -530 114 -32 -25 -96 -98 -154 -174 l-99 -132 -97 0 -96 0 -28 43 c-62 94
-170 229 -205 257 -84 66 -214 94 -311 67z m159 -282 c12 -9 42 -48 68 -88 25
-40 62 -92 82 -116 l36 -44 -142 6 c-163 7 -188 17 -216 88 -33 82 22 169 108
169 23 0 51 -7 64 -15z m1101 0 c26 -13 40 -36 56 -92 9 -33 -28 -109 -62
-126 -20 -11 -69 -16 -165 -19 -125 -3 -135 -2 -127 14 5 9 14 20 19 23 5 3
39 48 76 100 36 52 73 99 82 105 25 14 89 12 121 -5z"/>
<path d="M4454 4746 c-17 -8 -34 -24 -37 -36 -15 -56 30 -188 99 -292 131
-197 380 -280 620 -207 125 38 269 167 330 294 40 83 44 132 12 163 -46 43
-51 43 -566 72 -412 23 -417 23 -458 6z"/>
<path d="M8510 4252 c0 -4 5 -13 12 -20 9 -9 5 -12 -17 -12 -17 0 -41 -9 -55
-20 -15 -12 -41 -20 -65 -20 -22 -1 -58 -8 -80 -16 -22 -9 -49 -17 -60 -19
-11 -2 -32 -8 -46 -13 -15 -6 -36 -8 -47 -5 -11 2 -23 0 -26 -6 -4 -5 -14 -7
-23 -4 -12 5 -14 3 -8 -8 7 -11 6 -12 -6 -3 -15 11 -20 11 -62 -1 -18 -5 -33
-3 -39 3 -8 8 -15 7 -23 -5 -7 -9 -23 -17 -36 -18 -13 -1 -24 -8 -25 -16 -3
-44 -4 -45 -14 -29 -8 12 -10 9 -10 -12 0 -15 -4 -30 -10 -33 -14 -9 -13 17 3
51 24 56 87 145 98 138 8 -5 8 -1 0 14 -6 11 -20 22 -31 25 -11 3 -18 2 -15
-3 3 -4 -23 1 -57 11 -41 13 -72 17 -93 12 -16 -4 -35 -6 -42 -5 -6 2 -30 -15
-52 -36 -34 -32 -41 -46 -41 -77 0 -87 75 -154 176 -156 27 0 43 -3 37 -6 -9
-3 -13 -35 -13 -107 0 -102 18 -184 56 -258 12 -23 12 -28 1 -28 -7 0 -22 -8
-33 -17 -43 -39 -83 -62 -115 -68 -31 -5 -35 -3 -49 27 -14 31 -21 35 -120 60
-58 15 -110 27 -117 28 -6 0 -22 -31 -34 -70 -15 -44 -26 -65 -31 -57 -6 9 -8
9 -8 -1 0 -10 -4 -10 -15 2 -15 14 -35 18 -158 31 -54 6 -58 8 -53 28 5 20 4
21 -8 5 -14 -19 -61 -25 -70 -9 -7 10 -76 20 -76 10 0 -12 -84 -18 -98 -7 -16
13 -67 -7 -57 -22 4 -6 1 -9 -7 -8 -7 2 -12 -3 -10 -10 1 -8 -2 -11 -7 -8 -12
8 -73 -66 -108 -129 -15 -27 -41 -88 -58 -135 l-30 -85 -95 -50 c-84 -44 -114
-68 -259 -210 -181 -177 -221 -229 -221 -287 0 -139 147 -238 268 -181 21 10
98 78 172 151 129 128 222 204 283 230 15 6 27 9 27 6 0 -2 -55 -62 -122 -132
-66 -70 -134 -147 -150 -171 -42 -68 -36 -135 20 -194 68 -72 158 -87 233 -38
64 42 258 248 377 401 l43 56 59 -29 c54 -27 115 -36 185 -28 11 1 81 2 155 1
109 -1 138 -4 152 -17 33 -30 22 -59 -56 -141 -143 -151 -176 -209 -156 -281
28 -106 152 -176 243 -138 45 19 118 87 193 178 l56 68 25 -30 c50 -59 129
-76 199 -43 68 32 325 320 365 409 22 47 24 133 5 178 -23 55 -86 105 -203
162 -62 30 -118 55 -126 55 -7 0 -21 -16 -31 -36 -20 -42 -91 -137 -130 -173
l-26 -24 -39 27 c-22 15 -47 36 -56 46 -16 17 -15 19 6 30 62 33 192 192 214
260 5 14 17 20 53 22 l47 3 9 57 9 57 56 6 c80 9 165 31 212 56 51 25 134 101
164 149 71 112 89 272 47 406 -23 75 -82 171 -102 166 -6 -1 -9 2 -6 7 8 13
-66 82 -82 76 -7 -3 -11 -1 -8 3 3 5 -8 13 -24 19 -28 10 -29 10 -19 -8 9 -18
8 -19 -9 -8 -12 7 -19 21 -17 31 2 10 0 16 -6 13 -5 -4 -9 -1 -9 4 0 6 -11 11
-25 11 -14 0 -25 -4 -25 -8z m37 -8 c-3 -3 -12 -4 -19 -1 -8 3 -5 6 6 6 11 1
17 -2 13 -5z m-837 -43 c-19 -16 -37 -27 -40 -24 -3 2 3 9 13 14 9 6 23 16 30
24 6 8 17 14 22 14 6 0 -6 -13 -25 -28z m866 -19 c-4 -3 -14 2 -24 12 -16 18
-16 18 6 6 13 -6 21 -14 18 -18z m-397 -116 c9 -11 4 -14 -31 -14 l-43 0 30
13 c17 7 31 14 31 14 1 1 7 -5 13 -13z m-86 -41 c-3 -9 -8 -14 -10 -11 -3 3
-2 9 2 15 9 16 15 13 8 -4z m-16 -62 c-3 -10 -5 -4 -5 12 0 17 2 24 5 18 2 -7
2 -21 0 -30z m-194 -430 c-6 -2 -9 -14 -7 -26 4 -21 4 -21 -4 -2 -11 24 -4 47
11 38 8 -5 8 -8 0 -10z m-33 -21 c0 -8 -52 -42 -65 -42 -9 0 48 49 58 50 4 0
7 -4 7 -8z m-45 -72 c8 -13 -5 -13 -25 0 -13 8 -13 10 2 10 9 0 20 -4 23 -10z
m413 -647 c22 -14 26 -34 6 -40 -5 -1 -27 13 -49 32 l-40 35 30 -6 c17 -4 40
-13 53 -21z"/>
<path d="M8060 4218 c0 -4 4 -8 9 -8 6 0 12 4 15 8 3 5 -1 9 -9 9 -8 0 -15 -4
-15 -9z"/>
<path d="M2597 3950 c-4 -47 -7 -247 -8 -445 -1 -198 -5 -346 -9 -330 -4 17
-8 48 -9 70 -1 22 -5 36 -9 30 -4 -5 -29 -10 -57 -11 -139 -2 -259 -14 -267
-26 -6 -9 -8 -2 -5 17 2 17 2 24 0 18 -7 -20 -16 -15 -35 15 -10 15 -26 38
-37 52 -18 22 -21 46 -26 210 -7 222 -15 307 -25 270 -7 -24 -7 -23 -13 10 -4
19 -8 48 -9 64 -2 16 -9 31 -16 32 -7 1 -8 0 -2 -3 18 -9 11 -33 -10 -33 -11
0 -20 5 -20 10 0 6 -10 10 -22 10 -19 0 -20 2 -8 11 12 8 12 10 -5 7 -12 -2
-21 -12 -23 -26 -3 -19 -6 -21 -18 -11 -16 13 -16 13 -33 -63 -15 -63 -14
-148 1 -148 6 0 8 -3 5 -6 -3 -4 -1 -16 4 -27 10 -17 9 -19 -10 -14 -34 8 -24
-8 22 -38 45 -29 101 -90 73 -79 -9 3 -16 10 -16 14 0 12 -103 76 -135 84 -19
4 -25 3 -16 -2 26 -18 -5 -20 -67 -6 -50 12 -141 14 -452 12 -215 -2 -390 -2
-390 0 0 14 47 41 86 49 l49 11 -51 1 c-149 3 -262 -147 -210 -282 36 -95 92
-128 235 -137 97 -6 106 -8 127 -34 24 -27 24 -29 24 -269 0 -364 19 -462 114
-606 101 -151 248 -252 400 -273 75 -11 76 -11 76 -40 l0 -30 -227 4 c-192 3
-234 7 -267 22 -101 46 -146 111 -146 212 0 150 -122 239 -239 173 -102 -57
-138 -230 -80 -384 40 -106 143 -212 270 -275 120 -61 94 -60 1377 -60 1131 0
1171 1 1246 20 214 54 369 213 398 408 26 176 -51 312 -177 312 -99 0 -150
-60 -164 -194 -11 -114 -46 -165 -141 -209 -41 -20 -66 -22 -312 -25 l-268 -3
0 28 0 29 118 11 c86 9 136 19 184 39 136 55 264 178 332 319 55 112 66 184
66 424 0 115 4 221 10 235 11 30 65 66 98 66 20 0 9 16 -72 107 -101 112 -179
222 -242 340 -35 66 -42 73 -69 72 l-30 0 25 -12 c14 -7 26 -19 25 -27 0 -12
-22 -16 -107 -21 -166 -10 -273 -60 -355 -168 -38 -50 -61 -66 -48 -33 4 9 8
25 11 36 2 10 6 21 10 25 4 3 4 -2 1 -12 -4 -11 -3 -16 4 -12 5 4 8 12 6 18
-2 7 0 21 6 32 7 14 1 12 -22 -9 -17 -16 -29 -32 -26 -34 3 -3 -4 -19 -14 -36
-47 -77 -55 -122 -61 -341 l-6 -210 -2 200 c-2 225 7 280 60 375 30 53 54 83
108 137 33 33 145 84 195 90 91 10 88 8 81 70 -12 99 -58 174 -138 223 -28 17
-57 29 -65 26 -8 -3 -12 -2 -9 3 12 19 -38 24 -269 27 -138 2 -227 -1 -210 -5
l30 -9 -32 -1 c-17 0 -34 5 -36 12 -3 6 -6 3 -7 -8 -1 -20 -2 -20 -9 0 -5 12
-10 -10 -14 -65z m156 63 c-7 -2 -19 -2 -25 0 -7 3 -2 5 12 5 14 0 19 -2 13
-5z m260 0 c-13 -2 -33 -2 -45 0 -13 2 -3 4 22 4 25 0 35 -2 23 -4z m-896
-285 c-3 -7 -5 -2 -5 12 0 14 2 19 5 13 2 -7 2 -19 0 -25z m-48 -262 c-3 -3
-11 5 -18 17 -13 21 -12 21 5 5 10 -10 16 -20 13 -22z m841 -634 c0 -5 -7 -17
-15 -28 -14 -18 -14 -17 -4 9 12 27 19 34 19 19z m-36 -75 c-3 -8 -23 -28 -45
-43 -36 -24 -49 -27 -142 -30 -121 -3 -116 -2 -97 -14 12 -8 11 -10 -7 -10
-14 0 -21 5 -18 13 4 9 -28 13 -137 15 -234 4 -169 12 98 12 l250 0 47 30 c26
16 47 35 47 41 0 7 2 10 5 7 3 -3 3 -12 -1 -21z m-257 -110 c13 -1 23 -6 23
-10 0 -5 -62 -6 -137 -3 -162 6 -154 5 -125 17 13 5 21 13 18 17 -3 5 41 2 97
-5 56 -8 112 -15 124 -16z m172 9 c-2 -2 -20 -6 -39 -10 -25 -4 -31 -3 -20 4
14 9 69 15 59 6z m-29 -611 l0 -35 -325 0 -325 0 0 35 0 35 325 0 325 0 0 -35z"/>
<path d="M2418 2653 c12 -2 32 -2 45 0 12 2 2 4 -23 4 -25 0 -35 -2 -22 -4z"/>
<path d="M6942 3819 c-13 -5 -21 -13 -17 -19 3 -5 0 -7 -7 -5 -8 3 -25 -6 -37
-19 -41 -44 -38 -171 4 -206 12 -10 21 -7 48 12 17 14 66 36 107 49 41 13 77
24 79 26 10 7 -47 138 -68 154 -25 20 -71 24 -109 8z"/>
<path d="M1328 3673 c6 -2 18 -2 25 0 6 3 1 5 -13 5 -14 0 -19 -2 -12 -5z"/>
<path d="M7082 3619 c16 -11 48 -12 48 -1 0 4 -14 7 -31 8 -20 1 -26 -2 -17
-7z"/>
<path d="M6940 3540 c-9 -6 -10 -10 -3 -10 6 0 15 5 18 10 8 12 4 12 -15 0z"/>
<path d="M7198 3543 c7 -3 16 -2 19 1 4 3 -2 6 -13 5 -11 0 -14 -3 -6 -6z"/>
<path d="M3057 3529 c7 -7 15 -10 18 -7 3 3 -2 9 -12 12 -14 6 -15 5 -6 -5z"/>
<path d="M7258 3533 c7 -3 16 -2 19 1 4 3 -2 6 -13 5 -11 0 -14 -3 -6 -6z"/>
</g>
</svg>
